<svg version="1.1" id="Capa_1" xmlns="http://www.w3.org/2000/svg" xmlns:xlink="http://www.w3.org/1999/xlink" x="0px" y="0px" viewBox="0 0 40 40" style="enable-background:new 0 0 40 40;" xml:space="preserve"><style type="text/css">.st0{fill:#BFBDBE;}</style><g><path class="st0" d="M28.3,27.6c-0.3-0.3-0.7-0.3-1,0l-6.7,6.7V4.1c0-0.4-0.3-0.7-0.7-0.7c-0.4,0-0.7,0.3-0.7,0.7v30.1l-6.7-6.7 c-0.3-0.3-0.7-0.3-1,0c-0.3,0.3-0.3,0.7,0,1l7.8,7.8c0.1,0.1,0.3,0.2,0.5,0.2c0.2,0,0.3-0.1,0.5-0.2l7.8-7.8 C28.6,28.3,28.6,27.8,28.3,27.6z"/></g></svg>