<svg id="Layer_1" data-name="Layer 1" xmlns="http://www.w3.org/2000/svg" viewBox="0 0 70 70"><defs><style>.cls-1{fill:#fff;}</style></defs><title>10Card</title><path class="cls-1" d="M53,21a6.92,6.92,0,0,0-3.5.95A6.92,6.92,0,0,0,46,21a7,7,0,0,0,0,14,6.92,6.92,0,0,0,3.5-1A6.92,6.92,0,0,0,53,35a7,7,0,0,0,0-14Zm-2,7a5,5,0,0,1-1.5,3.56,5,5,0,0,1,0-7.12A5,5,0,0,1,51,28ZM41,28a5,5,0,0,1,5-5,5.08,5.08,0,0,1,1.79.34,7,7,0,0,0,0,9.32A5.08,5.08,0,0,1,46,33,5,5,0,0,1,41,28Zm12,5a5.08,5.08,0,0,1-1.79-.34,7,7,0,0,0,0-9.32A5.08,5.08,0,0,1,53,23a5,5,0,0,1,0,10Z"/><path class="cls-1" d="M60.78,15H9.22A4.22,4.22,0,0,0,5,19.22V54.78A4.22,4.22,0,0,0,9.22,59H60.78A4.22,4.22,0,0,0,65,54.78V19.22A4.22,4.22,0,0,0,60.78,15ZM63,54.78A2.21,2.21,0,0,1,60.78,57H9.22A2.21,2.21,0,0,1,7,54.78V19.22A2.21,2.21,0,0,1,9.22,17H60.78A2.21,2.21,0,0,1,63,19.22Z"/><path class="cls-1" d="M11,25h9a1,1,0,0,0,0-2H11a1,1,0,0,0,0,2Z"/><path class="cls-1" d="M33,23H24a1,1,0,0,0,0,2h9a1,1,0,0,0,0-2Z"/><path class="cls-1" d="M11,30h1a1,1,0,0,0,0-2H11a1,1,0,0,0,0,2Z"/><path class="cls-1" d="M16,28a1,1,0,0,0,0,2h2a1,1,0,0,0,0-2Z"/><path class="cls-1" d="M24,29a1,1,0,0,0-1-1H22a1,1,0,0,0,0,2h1A1,1,0,0,0,24,29Z"/><path class="cls-1" d="M29,30a1,1,0,0,0,0-2H27a1,1,0,0,0,0,2Z"/><path class="cls-1" d="M32.3,28.29A1,1,0,0,0,32,29a1,1,0,0,0,.29.71A1,1,0,0,0,34,29a1,1,0,0,0-.29-.7A1,1,0,0,0,32.3,28.29Z"/><path class="cls-1" d="M10,52H21V44H10Zm2-6h7v4H12Z"/><path class="cls-1" d="M23,52H34V44H23Zm2-6h7v4H25Z"/><path class="cls-1" d="M36,52H47V44H36Zm2-6h7v4H38Z"/><path class="cls-1" d="M49,52H60V44H49Zm2-6h7v4H51Z"/></svg>