<svg id="Layer_1" data-name="Layer 1" xmlns="http://www.w3.org/2000/svg" viewBox="0 0 70 70"><defs><style>.cls-1{fill:#fff;}</style></defs><title>10Dogovor</title><path class="cls-1" d="M43.16,7.55H13.5v54.9h43V20.9Zm.53,3.13,9.69,9.68H43.69ZM15.33,60.62V9.38H41.86V22.19H54.67V60.62Z"/><path class="cls-1" d="M22.65,23.11h8.23a.92.92,0,1,0,0-1.83H22.65a.92.92,0,1,0,0,1.83Z"/><path class="cls-1" d="M38.2,41.4H22.65a.92.92,0,1,0,0,1.83H38.2a.92.92,0,1,0,0-1.83Z"/><path class="cls-1" d="M47.35,35H41a.92.92,0,1,0,0,1.83h6.4a.92.92,0,1,0,0-1.83Z"/><path class="cls-1" d="M22.65,30.43h4.57a.92.92,0,1,0,0-1.83H22.65a.92.92,0,1,0,0,1.83Z"/><path class="cls-1" d="M36.37,30.43h6.41a.92.92,0,0,0,0-1.83H36.37a.92.92,0,0,0,0,1.83Z"/><path class="cls-1" d="M30.88,29.51a.93.93,0,0,0,.27.65,1,1,0,0,0,.65.27,1,1,0,0,0,.65-.27.94.94,0,0,0,0-1.3,1,1,0,0,0-1.3,0A.93.93,0,0,0,30.88,29.51Z"/><path class="cls-1" d="M27.22,35a.92.92,0,0,0,0,1.83h9.15a.92.92,0,1,0,0-1.83Z"/><path class="cls-1" d="M22.65,36.83a1,1,0,0,0,.65-.27.93.93,0,0,0,0-1.29,1,1,0,0,0-1.3,0,.91.91,0,0,0-.27.64.92.92,0,0,0,.92.92Z"/><path class="cls-1" d="M47.35,47.81H41a.92.92,0,1,0,0,1.83h6.4a.92.92,0,1,0,0-1.83Z"/><path class="cls-1" d="M36.37,47.81H27.22a.92.92,0,0,0,0,1.83h9.15a.92.92,0,1,0,0-1.83Z"/><path class="cls-1" d="M22,48.07a.93.93,0,0,0-.27.65.91.91,0,0,0,.27.65.92.92,0,0,0,1.3,0,1,1,0,0,0,.26-.65.94.94,0,0,0-.26-.64A1,1,0,0,0,22,48.07Z"/><path class="cls-1" d="M46.7,28.86a.94.94,0,0,0,0,1.3,1,1,0,0,0,.65.27,1,1,0,0,0,.65-.27.92.92,0,0,0,0-1.3A1,1,0,0,0,46.7,28.86Z"/><path class="cls-1" d="M43.43,43a1,1,0,0,0,.26-.65,1,1,0,0,0-.26-.65,1,1,0,0,0-1.3,0,.93.93,0,0,0-.27.65,1,1,0,0,0,.27.65.91.91,0,0,0,.65.26A1,1,0,0,0,43.43,43Z"/><path class="cls-1" d="M46.7,41.67a1,1,0,0,0-.26.65,1,1,0,0,0,.26.65,1,1,0,0,0,.65.26.9.9,0,0,0,.92-.91.93.93,0,0,0-.27-.65A1,1,0,0,0,46.7,41.67Z"/></svg>