<svg id="Layer_1" data-name="Layer 1" xmlns="http://www.w3.org/2000/svg" viewBox="0 0 70 70"><defs><style>.cls-1{fill:#fff;}</style></defs><title>10Percent</title><g id="Percent"><path class="cls-1" d="M43.05,23.93a.93.93,0,0,0-1.31.21l-15,20.62A.94.94,0,0,0,27,46.07a1,1,0,0,0,.55.18.93.93,0,0,0,.76-.39l15-20.62A.94.94,0,0,0,43.05,23.93Z"/><path class="cls-1" d="M35,5A30,30,0,1,0,65,35,30,30,0,0,0,35,5Zm0,58.13A28.13,28.13,0,1,1,63.13,35,28.15,28.15,0,0,1,35,63.13Z"/><path class="cls-1" d="M30.31,32.19a4.69,4.69,0,1,0-4.68-4.69A4.69,4.69,0,0,0,30.31,32.19Zm0-7.5A2.81,2.81,0,1,1,27.5,27.5,2.82,2.82,0,0,1,30.31,24.69Z"/><path class="cls-1" d="M40.63,37.81a4.69,4.69,0,1,0,4.68,4.69A4.69,4.69,0,0,0,40.63,37.81Zm0,7.5a2.81,2.81,0,1,1,2.81-2.81A2.81,2.81,0,0,1,40.63,45.31Z"/></g></svg>