<svg id="Layer_1" data-name="Layer 1" xmlns="http://www.w3.org/2000/svg" viewBox="0 0 70 70"><defs><style>.cls-1{fill:#fff;}</style></defs><title>10Etapy</title><g id="surface1"><path class="cls-1" d="M21.91,38H11.08a2.71,2.71,0,0,0-2.71,2.71V58.73a2.71,2.71,0,0,0,2.71,2.71H21.91a2.71,2.71,0,0,0,2.71-2.71V40.67A2.71,2.71,0,0,0,21.91,38Zm.91,20.77a.9.9,0,0,1-.91.9H11.08a.9.9,0,0,1-.9-.9V40.67a.9.9,0,0,1,.9-.9H21.91a.9.9,0,0,1,.91.9Z"/><path class="cls-1" d="M59.84,28.93H49a2.72,2.72,0,0,0-2.71,2.71V58.73A2.72,2.72,0,0,0,49,61.44H59.84a2.71,2.71,0,0,0,2.7-2.71V31.64A2.71,2.71,0,0,0,59.84,28.93Zm.9,29.8a.9.9,0,0,1-.9.9H49a.9.9,0,0,1-.9-.9V31.64a.9.9,0,0,1,.9-.9H59.84a.9.9,0,0,1,.9.9Z"/><path class="cls-1" d="M40.88,33.45H30a2.71,2.71,0,0,0-2.71,2.71V58.73A2.71,2.71,0,0,0,30,61.44H40.88a2.71,2.71,0,0,0,2.7-2.71V36.16A2.7,2.7,0,0,0,40.88,33.45Zm.9,25.28a.9.9,0,0,1-.9.9H30a.9.9,0,0,1-.9-.9V36.16a.9.9,0,0,1,.9-.91H40.88a.91.91,0,0,1,.9.91Z"/><path class="cls-1" d="M42,27.76a.89.89,0,0,0,1.28,0L58.93,12.15v1.43a.91.91,0,1,0,1.81,0V10a.81.81,0,0,0-.06-.31l0-.09a.62.62,0,0,0-.12-.19.83.83,0,0,0-.3-.23h0a.82.82,0,0,0-.31-.07H56.22a.9.9,0,1,0,0,1.8h1.44l-15,15-7.94-7.94a.9.9,0,0,0-1.27,0l-9.3,9.29-4.33-4.32a.88.88,0,0,0-1.27,0L10.44,31a.91.91,0,1,0,1.28,1.28l7.49-7.49,4.32,4.33a.91.91,0,0,0,1.28,0l9.29-9.29Z"/></g></svg>