<svg id="Layer_1" data-name="Layer 1" xmlns="http://www.w3.org/2000/svg" viewBox="0 0 70 70"><defs><style>.cls-1{fill:#fff;}</style></defs><title>10Nalichnye</title><path class="cls-1" d="M63.16,30.5h-.87v-12A5.56,5.56,0,0,0,56.74,13H32.69L16.47,8.35h-.56l-.05,0,0,0-.05,0,0,0,0,0,0,0,0,0,0,0,0,0,0,0,0,0,0,0,0,0,0,0a2517588727560.82,2517588727560.82,0,0,0,0,.08l0,0V9h0V9l-1,4H11.56A5.56,5.56,0,0,0,6,18.51V48.88a.88.88,0,1,0,1.75,0V22.57a5.55,5.55,0,0,0,3.8,1.5H56.75a3.81,3.81,0,0,1,3.79,3.8V34H50.65l-.06,0h0l0,0h0l0,0,0,0h0s0,0,0,0h0l0,0,0,0,0,0a.18.18,0,0,0,0,.07h0l-4.67,7a.83.83,0,0,0-.09.16.14.14,0,0,1,0,.06v0a.14.14,0,0,0,0,.06v0a.13.13,0,0,0,0,.06V42a.13.13,0,0,0,0,.06v0a.14.14,0,0,0,0,.06v0a.14.14,0,0,1,0,.06.83.83,0,0,0,.09.16l4.67,7h0l.06.08,0,0,.05,0,0,0,.06,0,0,0,.08,0h0l.07,0h0l.07,0h9.86v6.13a3.8,3.8,0,0,1-3.8,3.8H11.56a3.8,3.8,0,0,1-3.79-3.8h0V52.39a.88.88,0,0,0-1.76,0v3.53a5.55,5.55,0,0,0,5.54,5.52H56.74a5.56,5.56,0,0,0,5.55-5.55h0V49.76h.87a2.63,2.63,0,0,0,2.63-2.63v-14A2.62,2.62,0,0,0,63.16,30.5ZM16.86,10.28l15.45,4.41h0l10.36,3H15ZM60.54,23.83a5.54,5.54,0,0,0-3.8-1.51H11.56a3.8,3.8,0,0,1,0-7.59h2.38l-.73,2.92H11.56a.88.88,0,1,0,0,1.75h44a.88.88,0,1,0,0-1.75H49L38.82,14.73H56.74a3.8,3.8,0,0,1,3.8,3.8ZM64,47.13h0a.87.87,0,0,1-.88.88H51.37l-4.08-6.13,4.08-6.13H63.2A2.9,2.9,0,0,0,64,35.6V47.13ZM63.16,34h-.87V32.25h.87a.88.88,0,1,1,0,1.75Z"/></svg>